<svg xmlns="http://www.w3.org/2000/svg" width="1600" height="900" viewBox="0 0 1600 900">
 <rect width="1600" height="900" fill="#07111f"/><text x="70" y="78" fill="#fff" font-family="Arial" font-size="46" font-weight="700">VERIBID</text><text x="70" y="125" fill="#9fb3c8" font-family="Arial" font-size="26">Evidence-Driven Bid Evaluation Engine</text>
 <text x="70" y="190" fill="#fff" font-family="Arial" font-size="34" font-weight="700">Requirements × Vendor Evidence Matrix</text>
 <g font-family="Arial" font-size="22"><rect x="70" y="230" width="860" height="460" rx="18" fill="#102a43" stroke="#294d6b" stroke-width="2"/>
  <text x="95" y="275" fill="#9fb3c8" font-size="18">REQUIREMENT</text><text x="445" y="275" fill="#7dd3fc" font-size="18">VENDOR A</text><text x="625" y="275" fill="#86efac" font-size="18">VENDOR B</text><text x="805" y="275" fill="#f9a8d4" font-size="18">VENDOR C</text>
  <path d="M90 295 H910 M410 245 V665 M590 245 V665 M770 245 V665" stroke="#3b5d78"/>
  <text x="95" y="355" fill="#fff">COMM-01</text><text x="440" y="355" fill="#fbbf24">CONFLICT</text><text x="625" y="355" fill="#86efac">SATISFIED</text><text x="805" y="355" fill="#fca5a5">INSUFFICIENT</text>
  <text x="95" y="455" fill="#fff">COMP-01</text><text x="440" y="455" fill="#fbbf24">CONFLICT</text><text x="625" y="455" fill="#fca5a5">INSUFFICIENT</text><text x="805" y="455" fill="#fca5a5">INSUFFICIENT</text>
  <text x="95" y="555" fill="#fff">TECH-01</text><text x="440" y="555" fill="#fca5a5">INSUFFICIENT</text><text x="625" y="555" fill="#86efac">SATISFIED</text><text x="805" y="555" fill="#fca5a5">INSUFFICIENT</text>
  <rect x="420" y="307" width="160" height="64" rx="10" fill="#5b4310" stroke="#fbbf24" stroke-width="2"/><text x="500" y="345" text-anchor="middle" fill="#fff" font-size="18" font-weight="700">CONFLICTING</text><text x="500" y="368" text-anchor="middle" fill="#fff" font-size="18" font-weight="700">EVIDENCE</text>
 </g>
 <rect x="1000" y="230" width="530" height="460" rx="18" fill="#172b1d" stroke="#86efac" stroke-width="2"/><text x="1040" y="285" fill="#86efac" font-family="Arial" font-size="28" font-weight="700">One source. Two sides.</text><text x="1040" y="345" fill="#e2e8f0" font-family="Arial" font-size="22">EU processing or hosting</text><text x="1040" y="390" fill="#fbbf24" font-family="Arial" font-size="21">vs.</text><text x="1040" y="440" fill="#e2e8f0" font-family="Arial" font-size="22">Processing in the United States</text><path d="M1040 470 H1490" stroke="#64748b"/><text x="1040" y="525" fill="#f8fafc" font-family="Arial" font-size="21">Both SourcePointers preserved</text><text x="1040" y="565" fill="#f8fafc" font-family="Arial" font-size="21">DATA_RESIDENCY · UNRESOLVED</text><text x="1040" y="635" fill="#fbbf24" font-family="Arial" font-size="19">Illustrative evidence card — not a UI screenshot</text>
 <text x="70" y="820" fill="#5eead4" font-family="Arial" font-size="28" font-weight="700">Source-backed decisions. Human final authority.</text>
</svg>
